<mxfile host="app.diagrams.net" agent="Mozilla/5.0 (Windows NT 10.0; Win64; x64) AppleWebKit/537.36 (KHTML, like Gecko) Chrome/131.0.0.0 Safari/537.36 Edg/131.0.0.0" version="25.0.3">
  <diagram name="Page-1" id="X4H1b2zQ6Wmzur0f0qnU">
    <mxGraphModel dx="1042" dy="663" grid="1" gridSize="10" guides="1" tooltips="1" connect="1" arrows="1" fold="1" page="1" pageScale="1" pageWidth="850" pageHeight="1100" background="#ffffff" math="0" shadow="0">
      <root>
        <mxCell id="0" />
        <mxCell id="1" parent="0" />
        <mxCell id="cioU7FfHLNsiO_axy74r-1" value="Transaction Producer" style="whiteSpace=wrap;html=1;aspect=fixed;fillColor=#dae8fc;strokeColor=#6c8ebf;" parent="1" vertex="1">
          <mxGeometry x="40" y="230" width="100" height="100" as="geometry" />
        </mxCell>
        <mxCell id="cioU7FfHLNsiO_axy74r-2" value="topic: transactions" style="rounded=1;whiteSpace=wrap;html=1;fillColor=#dae8fc;strokeColor=#6c8ebf;" parent="1" vertex="1">
          <mxGeometry x="200" y="80" width="150" height="40" as="geometry" />
        </mxCell>
        <mxCell id="cioU7FfHLNsiO_axy74r-3" value="" style="endArrow=classic;html=1;rounded=0;entryX=0.5;entryY=1;entryDx=0;entryDy=0;" parent="1" source="cioU7FfHLNsiO_axy74r-1" target="cioU7FfHLNsiO_axy74r-2" edge="1">
          <mxGeometry width="50" height="50" relative="1" as="geometry">
            <mxPoint x="400" y="370" as="sourcePoint" />
            <mxPoint x="450" y="320" as="targetPoint" />
          </mxGeometry>
        </mxCell>
        <mxCell id="cioU7FfHLNsiO_axy74r-4" value="&lt;div style=&quot;background-color:#ffffff;color:#080808&quot;&gt;&lt;pre style=&quot;font-family:&#39;JetBrains Mono&#39;,monospace;font-size:9.8pt;&quot;&gt;&lt;span style=&quot;color:#000000;&quot;&gt;(TransactionKey.,Transcation)&lt;/span&gt;&lt;/pre&gt;&lt;/div&gt;" style="text;html=1;align=center;verticalAlign=middle;whiteSpace=wrap;rounded=0;" parent="1" vertex="1">
          <mxGeometry x="170" y="190" width="60" height="30" as="geometry" />
        </mxCell>
        <mxCell id="cioU7FfHLNsiO_axy74r-5" value="" style="curved=1;endArrow=classic;html=1;rounded=0;entryX=1.012;entryY=0.64;entryDx=0;entryDy=0;entryPerimeter=0;" parent="1" target="cioU7FfHLNsiO_axy74r-1" edge="1">
          <mxGeometry width="50" height="50" relative="1" as="geometry">
            <mxPoint x="140" y="310" as="sourcePoint" />
            <mxPoint x="190" y="260" as="targetPoint" />
            <Array as="points">
              <mxPoint x="190" y="310" />
              <mxPoint x="140" y="260" />
            </Array>
          </mxGeometry>
        </mxCell>
        <mxCell id="cioU7FfHLNsiO_axy74r-6" value="Scheduler: inputs from system" style="edgeLabel;html=1;align=center;verticalAlign=middle;resizable=0;points=[];" parent="cioU7FfHLNsiO_axy74r-5" vertex="1" connectable="0">
          <mxGeometry x="-0.0594" y="4" relative="1" as="geometry">
            <mxPoint as="offset" />
          </mxGeometry>
        </mxCell>
        <mxCell id="cioU7FfHLNsiO_axy74r-7" value="&lt;span style=&quot;box-sizing: border-box; font-weight: var(--base-text-weight-semibold, 600); color: rgb(31, 35, 40); font-family: -apple-system, BlinkMacSystemFont, &amp;quot;Segoe UI&amp;quot;, &amp;quot;Noto Sans&amp;quot;, Helvetica, Arial, sans-serif, &amp;quot;Apple Color Emoji&amp;quot;, &amp;quot;Segoe UI Emoji&amp;quot;; font-size: 16px; text-align: left; background-color: rgb(255, 255, 255);&quot;&gt;transaction-filter-topology&lt;/span&gt;" style="whiteSpace=wrap;html=1;aspect=fixed;fillColor=#fff2cc;strokeColor=#d6b656;" parent="1" vertex="1">
          <mxGeometry x="230" y="495" width="140" height="140" as="geometry" />
        </mxCell>
        <mxCell id="cioU7FfHLNsiO_axy74r-8" value="" style="shape=flexArrow;endArrow=classic;html=1;rounded=0;" parent="1" edge="1">
          <mxGeometry width="50" height="50" relative="1" as="geometry">
            <mxPoint x="140" y="570" as="sourcePoint" />
            <mxPoint x="230" y="570" as="targetPoint" />
          </mxGeometry>
        </mxCell>
        <mxCell id="cioU7FfHLNsiO_axy74r-10" value="" style="shape=flexArrow;endArrow=classic;html=1;rounded=0;" parent="1" edge="1">
          <mxGeometry width="50" height="50" relative="1" as="geometry">
            <mxPoint x="370" y="564.5" as="sourcePoint" />
            <mxPoint x="460" y="564.5" as="targetPoint" />
          </mxGeometry>
        </mxCell>
        <mxCell id="cioU7FfHLNsiO_axy74r-12" value="&lt;div style=&quot;background-color:#ffffff;color:#080808&quot;&gt;&lt;pre style=&quot;font-family:&#39;JetBrains Mono&#39;,monospace;font-size:9.8pt;&quot;&gt;&lt;span style=&quot;color:#067d17;&quot;&gt;transfer-transactions&lt;/span&gt;&lt;/pre&gt;&lt;/div&gt;" style="text;whiteSpace=wrap;html=1;" parent="1" vertex="1">
          <mxGeometry x="370" y="560" width="180" height="70" as="geometry" />
        </mxCell>
        <mxCell id="cioU7FfHLNsiO_axy74r-13" value="&lt;div style=&quot;background-color:#ffffff;color:#080808&quot;&gt;&lt;pre style=&quot;font-family:&#39;JetBrains Mono&#39;,monospace;font-size:9.8pt;&quot;&gt;&lt;span style=&quot;color:#067d17;&quot;&gt;transactions&lt;/span&gt;&lt;/pre&gt;&lt;/div&gt;" style="text;whiteSpace=wrap;html=1;" parent="1" vertex="1">
          <mxGeometry x="40" y="540" width="120" height="70" as="geometry" />
        </mxCell>
        <mxCell id="cioU7FfHLNsiO_axy74r-14" value="&lt;div style=&quot;background-color:#ffffff;color:#080808&quot;&gt;&lt;pre style=&quot;font-family:&#39;JetBrains Mono&#39;,monospace;font-size:9.8pt;&quot;&gt;topic:loan-requests&lt;/pre&gt;&lt;/div&gt;" style="rounded=1;whiteSpace=wrap;html=1;fillColor=#f8cecc;strokeColor=#b85450;" parent="1" vertex="1">
          <mxGeometry x="900" y="40" width="120" height="60" as="geometry" />
        </mxCell>
        <mxCell id="cioU7FfHLNsiO_axy74r-15" value="Actor" style="shape=umlActor;verticalLabelPosition=bottom;verticalAlign=top;html=1;outlineConnect=0;fillColor=#f8cecc;strokeColor=#b85450;" parent="1" vertex="1">
          <mxGeometry x="495" y="50" width="30" height="60" as="geometry" />
        </mxCell>
        <mxCell id="cioU7FfHLNsiO_axy74r-16" value="&lt;div style=&quot;background-color:#ffffff;color:#080808&quot;&gt;&lt;pre style=&quot;font-family:&#39;JetBrains Mono&#39;,monospace;font-size:9.8pt;&quot;&gt;&lt;span style=&quot;color:#000000;&quot;&gt;LoanRestController&lt;/span&gt;&lt;/pre&gt;&lt;/div&gt;" style="whiteSpace=wrap;html=1;aspect=fixed;fillColor=#f8cecc;strokeColor=#b85450;" parent="1" vertex="1">
          <mxGeometry x="630" y="40" width="80" height="80" as="geometry" />
        </mxCell>
        <mxCell id="cioU7FfHLNsiO_axy74r-17" value="&lt;div style=&quot;background-color:#ffffff;color:#080808&quot;&gt;&lt;pre style=&quot;font-family:&#39;JetBrains Mono&#39;,monospace;font-size:9.8pt;&quot;&gt;&lt;span style=&quot;color:#067d17;&quot;&gt;/loans&lt;/span&gt;&lt;/pre&gt;&lt;/div&gt;" style="text;whiteSpace=wrap;html=1;" parent="1" vertex="1">
          <mxGeometry x="640" y="70" width="80" height="70" as="geometry" />
        </mxCell>
        <mxCell id="cioU7FfHLNsiO_axy74r-18" value="Text" style="text;html=1;align=center;verticalAlign=middle;whiteSpace=wrap;rounded=0;" parent="1" vertex="1">
          <mxGeometry x="600" y="330" width="60" height="30" as="geometry" />
        </mxCell>
        <mxCell id="cioU7FfHLNsiO_axy74r-19" value="(Account,LoanRequest)" style="text;html=1;align=center;verticalAlign=middle;whiteSpace=wrap;rounded=0;" parent="1" vertex="1">
          <mxGeometry x="960" y="110" width="60" height="30" as="geometry" />
        </mxCell>
        <mxCell id="cioU7FfHLNsiO_axy74r-21" value="" style="endArrow=classic;html=1;rounded=0;entryX=0;entryY=0.75;entryDx=0;entryDy=0;" parent="1" source="cioU7FfHLNsiO_axy74r-17" target="cioU7FfHLNsiO_axy74r-14" edge="1">
          <mxGeometry width="50" height="50" relative="1" as="geometry">
            <mxPoint x="610" y="370" as="sourcePoint" />
            <mxPoint x="660" y="320" as="targetPoint" />
          </mxGeometry>
        </mxCell>
        <mxCell id="cioU7FfHLNsiO_axy74r-22" value="JSON:&amp;nbsp;&lt;span style=&quot;font-family: &amp;quot;JetBrains Mono&amp;quot;, monospace; font-size: 9.8pt; background-color: rgb(255, 255, 255);&quot;&gt;ApiLoanRequest&lt;/span&gt;" style="text;html=1;align=center;verticalAlign=middle;resizable=0;points=[];autosize=1;strokeColor=none;fillColor=none;" parent="1" vertex="1">
          <mxGeometry x="730" y="128" width="160" height="30" as="geometry" />
        </mxCell>
        <mxCell id="cioU7FfHLNsiO_axy74r-23" value="" style="endArrow=classic;html=1;rounded=0;entryX=0;entryY=0.885;entryDx=0;entryDy=0;entryPerimeter=0;" parent="1" edge="1">
          <mxGeometry width="50" height="50" relative="1" as="geometry">
            <mxPoint x="525" y="73.05000000000003" as="sourcePoint" />
            <mxPoint x="630" y="99.99999999999996" as="targetPoint" />
          </mxGeometry>
        </mxCell>
        <mxCell id="dpicTkMfaYpDJ2BjrbRp-1" value="&lt;div style=&quot;background-color:#ffffff;color:#080808&quot;&gt;&lt;pre style=&quot;font-family:&#39;JetBrains Mono&#39;,monospace;font-size:9.8pt;&quot;&gt;&lt;span style=&quot;color:#000000;&quot;&gt;BalanceCalculationTopology&lt;/span&gt;&lt;/pre&gt;&lt;/div&gt;" style="whiteSpace=wrap;html=1;aspect=fixed;fillColor=#fff2cc;strokeColor=#d6b656;" vertex="1" parent="1">
          <mxGeometry x="830" y="520" width="140" height="140" as="geometry" />
        </mxCell>
        <mxCell id="dpicTkMfaYpDJ2BjrbRp-3" value="topic:&amp;nbsp;&lt;span style=&quot;color: rgb(6, 125, 23); font-family: &amp;quot;JetBrains Mono&amp;quot;, monospace; font-size: 9.8pt; background-color: rgb(255, 255, 255);&quot;&gt;account-balances&lt;/span&gt;" style="rounded=1;whiteSpace=wrap;html=1;fillColor=#fff2cc;strokeColor=#d6b656;" vertex="1" parent="1">
          <mxGeometry x="1260" y="410" width="170" height="40" as="geometry" />
        </mxCell>
        <mxCell id="dpicTkMfaYpDJ2BjrbRp-5" value="&lt;span style=&quot;color: rgb(0, 0, 0); font-family: Helvetica; font-size: 12px; font-style: normal; font-variant-ligatures: normal; font-variant-caps: normal; letter-spacing: normal; orphans: 2; text-align: center; text-indent: 0px; text-transform: none; widows: 2; word-spacing: 0px; -webkit-text-stroke-width: 0px; white-space: normal; background-color: rgb(251, 251, 251); text-decoration-thickness: initial; text-decoration-style: initial; text-decoration-color: initial; float: none; display: inline !important;&quot;&gt;&lt;b&gt;(Account,balance)&lt;/b&gt;&lt;/span&gt;" style="text;whiteSpace=wrap;html=1;" vertex="1" parent="1">
          <mxGeometry x="1260" y="453" width="160" height="40" as="geometry" />
        </mxCell>
        <mxCell id="dpicTkMfaYpDJ2BjrbRp-6" value="&lt;div style=&quot;background-color:#ffffff;color:#080808&quot;&gt;&lt;pre style=&quot;font-family:&#39;JetBrains Mono&#39;,monospace;font-size:9.8pt;&quot;&gt;&lt;span style=&quot;color:#000000;&quot;&gt;AccountBalanceCalculator&lt;/span&gt;&lt;/pre&gt;&lt;/div&gt;" style="whiteSpace=wrap;html=1;aspect=fixed;fillColor=#fff2cc;strokeColor=#d6b656;" vertex="1" parent="1">
          <mxGeometry x="1080" y="560" width="130" height="130" as="geometry" />
        </mxCell>
        <mxCell id="dpicTkMfaYpDJ2BjrbRp-7" value="" style="endArrow=classic;html=1;rounded=0;exitX=1.014;exitY=0.314;exitDx=0;exitDy=0;exitPerimeter=0;" edge="1" parent="1" source="dpicTkMfaYpDJ2BjrbRp-1" target="dpicTkMfaYpDJ2BjrbRp-6">
          <mxGeometry width="50" height="50" relative="1" as="geometry">
            <mxPoint x="1230" y="370" as="sourcePoint" />
            <mxPoint x="1280" y="320" as="targetPoint" />
          </mxGeometry>
        </mxCell>
        <mxCell id="dpicTkMfaYpDJ2BjrbRp-8" value="" style="endArrow=classic;html=1;rounded=0;exitX=0;exitY=0.75;exitDx=0;exitDy=0;" edge="1" parent="1" source="dpicTkMfaYpDJ2BjrbRp-6" target="dpicTkMfaYpDJ2BjrbRp-1">
          <mxGeometry width="50" height="50" relative="1" as="geometry">
            <mxPoint x="1230" y="370" as="sourcePoint" />
            <mxPoint x="1280" y="320" as="targetPoint" />
          </mxGeometry>
        </mxCell>
        <mxCell id="dpicTkMfaYpDJ2BjrbRp-9" value="" style="endArrow=classic;html=1;rounded=0;exitX=0.997;exitY=0.126;exitDx=0;exitDy=0;exitPerimeter=0;entryX=0.092;entryY=0.11;entryDx=0;entryDy=0;entryPerimeter=0;" edge="1" parent="1" source="dpicTkMfaYpDJ2BjrbRp-1" target="dpicTkMfaYpDJ2BjrbRp-3">
          <mxGeometry width="50" height="50" relative="1" as="geometry">
            <mxPoint x="1230" y="370" as="sourcePoint" />
            <mxPoint x="1280" y="320" as="targetPoint" />
          </mxGeometry>
        </mxCell>
        <mxCell id="dpicTkMfaYpDJ2BjrbRp-11" value="&lt;div style=&quot;background-color:#ffffff;color:#080808&quot;&gt;&lt;pre style=&quot;font-family:&#39;JetBrains Mono&#39;,monospace;font-size:9.8pt;&quot;&gt;&lt;div&gt;&lt;pre style=&quot;font-family:&#39;JetBrains Mono&#39;,monospace;font-size:9.8pt;&quot;&gt;&lt;span style=&quot;color:#000000;&quot;&gt;Processor is implemented&lt;/span&gt;&lt;/pre&gt;&lt;pre style=&quot;font-family:&#39;JetBrains Mono&#39;,monospace;font-size:9.8pt;&quot;&gt;&lt;span style=&quot;color:#000000;&quot;&gt; to parse records and instantiates ProcessContext&lt;/span&gt;&lt;/pre&gt;&lt;/div&gt;&lt;/pre&gt;&lt;/div&gt;" style="text;whiteSpace=wrap;html=1;" vertex="1" parent="1">
          <mxGeometry x="1210" y="630" width="180" height="70" as="geometry" />
        </mxCell>
        <mxCell id="dpicTkMfaYpDJ2BjrbRp-12" value="Loan EvaluationService" style="whiteSpace=wrap;html=1;aspect=fixed;fillColor=#d5e8d4;strokeColor=#82b366;" vertex="1" parent="1">
          <mxGeometry x="1280" y="170" width="140" height="140" as="geometry" />
        </mxCell>
        <mxCell id="dpicTkMfaYpDJ2BjrbRp-14" value="" style="endArrow=classic;html=1;rounded=0;exitX=1;exitY=0.5;exitDx=0;exitDy=0;" edge="1" parent="1" source="cioU7FfHLNsiO_axy74r-14" target="dpicTkMfaYpDJ2BjrbRp-12">
          <mxGeometry width="50" height="50" relative="1" as="geometry">
            <mxPoint x="1205" y="250" as="sourcePoint" />
            <mxPoint x="1010" y="320" as="targetPoint" />
          </mxGeometry>
        </mxCell>
        <mxCell id="dpicTkMfaYpDJ2BjrbRp-15" value="&lt;span style=&quot;color: rgb(0, 0, 0); font-family: Helvetica; font-size: 12px; font-style: normal; font-variant-ligatures: normal; font-variant-caps: normal; font-weight: 400; letter-spacing: normal; orphans: 2; text-align: center; text-indent: 0px; text-transform: none; widows: 2; word-spacing: 0px; -webkit-text-stroke-width: 0px; white-space: normal; background-color: rgb(251, 251, 251); text-decoration-thickness: initial; text-decoration-style: initial; text-decoration-color: initial; display: inline !important; float: none;&quot;&gt;(Account,LoanRequest)&lt;/span&gt;" style="text;whiteSpace=wrap;html=1;" vertex="1" parent="1">
          <mxGeometry x="1100" y="140" width="160" height="40" as="geometry" />
        </mxCell>
        <mxCell id="dpicTkMfaYpDJ2BjrbRp-17" value="Account Balance REPO" style="shape=cylinder3;whiteSpace=wrap;html=1;boundedLbl=1;backgroundOutline=1;size=15;fillColor=#d5e8d4;strokeColor=#82b366;" vertex="1" parent="1">
          <mxGeometry x="1430" y="20" width="90" height="110" as="geometry" />
        </mxCell>
        <mxCell id="dpicTkMfaYpDJ2BjrbRp-19" value="" style="endArrow=classic;html=1;rounded=0;exitX=1;exitY=0;exitDx=0;exitDy=0;" edge="1" parent="1" source="dpicTkMfaYpDJ2BjrbRp-12">
          <mxGeometry width="50" height="50" relative="1" as="geometry">
            <mxPoint x="1360" y="170" as="sourcePoint" />
            <mxPoint x="1410" y="120" as="targetPoint" />
          </mxGeometry>
        </mxCell>
        <mxCell id="dpicTkMfaYpDJ2BjrbRp-20" value="" style="endArrow=classic;html=1;rounded=0;exitX=0.145;exitY=1;exitDx=0;exitDy=-4.35;exitPerimeter=0;" edge="1" parent="1" source="dpicTkMfaYpDJ2BjrbRp-17" target="dpicTkMfaYpDJ2BjrbRp-12">
          <mxGeometry width="50" height="50" relative="1" as="geometry">
            <mxPoint x="1400" y="220" as="sourcePoint" />
            <mxPoint x="1450" y="170" as="targetPoint" />
          </mxGeometry>
        </mxCell>
        <mxCell id="dpicTkMfaYpDJ2BjrbRp-21" value="&lt;div style=&quot;color: rgb(8, 8, 8);&quot;&gt;&lt;pre style=&quot;font-family:&#39;JetBrains Mono&#39;,monospace;font-size:9.8pt;&quot;&gt;LoanResponse(AVRO)&lt;/pre&gt;&lt;/div&gt;" style="edgeLabel;html=1;align=center;verticalAlign=middle;resizable=0;points=[];" vertex="1" connectable="0" parent="dpicTkMfaYpDJ2BjrbRp-20">
          <mxGeometry x="0.0542" y="3" relative="1" as="geometry">
            <mxPoint y="-1" as="offset" />
          </mxGeometry>
        </mxCell>
        <mxCell id="dpicTkMfaYpDJ2BjrbRp-22" value="topic:&amp;nbsp;&lt;span style=&quot;font-family: &amp;quot;JetBrains Mono&amp;quot;, monospace; font-size: 9.8pt; background-color: rgb(255, 255, 255); color: rgb(8, 8, 8);&quot;&gt;loan-evaluation-results&lt;/span&gt;" style="rounded=1;whiteSpace=wrap;html=1;fillColor=#fff2cc;strokeColor=#d6b656;" vertex="1" parent="1">
          <mxGeometry x="1680" y="260" width="170" height="40" as="geometry" />
        </mxCell>
        <mxCell id="dpicTkMfaYpDJ2BjrbRp-23" value="" style="endArrow=classic;html=1;rounded=0;exitX=1.006;exitY=0.629;exitDx=0;exitDy=0;exitPerimeter=0;entryX=0;entryY=0.5;entryDx=0;entryDy=0;" edge="1" parent="1" source="dpicTkMfaYpDJ2BjrbRp-12" target="dpicTkMfaYpDJ2BjrbRp-22">
          <mxGeometry width="50" height="50" relative="1" as="geometry">
            <mxPoint x="1400" y="470" as="sourcePoint" />
            <mxPoint x="1450" y="420" as="targetPoint" />
          </mxGeometry>
        </mxCell>
        <mxCell id="dpicTkMfaYpDJ2BjrbRp-24" value="&lt;div style=&quot;background-color:#ffffff;color:#080808&quot;&gt;&lt;pre style=&quot;font-family:&#39;JetBrains Mono&#39;,monospace;font-size:9.8pt;&quot;&gt;&lt;span style=&quot;color:#067d17;&quot;&gt;account_balances:Table&lt;/span&gt;&lt;/pre&gt;&lt;/div&gt;" style="text;whiteSpace=wrap;html=1;" vertex="1" parent="1">
          <mxGeometry x="1480" y="20" width="150" height="70" as="geometry" />
        </mxCell>
        <mxCell id="dpicTkMfaYpDJ2BjrbRp-26" value="Loan Evaluation &lt;b&gt;TOPOLOGY&lt;/b&gt;" style="whiteSpace=wrap;html=1;aspect=fixed;fillColor=#e1d5e7;strokeColor=#9673a6;" vertex="1" parent="1">
          <mxGeometry x="1790" y="560" width="130" height="130" as="geometry" />
        </mxCell>
        <mxCell id="dpicTkMfaYpDJ2BjrbRp-28" value="topic:&amp;nbsp;&lt;span style=&quot;color: rgb(6, 125, 23); font-family: &amp;quot;JetBrains Mono&amp;quot;, monospace; font-size: 9.8pt; background-color: rgb(255, 255, 255);&quot;&gt;loan-requests&lt;/span&gt;" style="rounded=1;whiteSpace=wrap;html=1;fillColor=#fff2cc;strokeColor=#d6b656;" vertex="1" parent="1">
          <mxGeometry x="1610" y="600" width="170" height="40" as="geometry" />
        </mxCell>
        <mxCell id="dpicTkMfaYpDJ2BjrbRp-29" value="topic:&amp;nbsp;&lt;span style=&quot;color: rgb(6, 125, 23); font-family: &amp;quot;JetBrains Mono&amp;quot;, monospace; font-size: 9.8pt; background-color: rgb(255, 255, 255);&quot;&gt;loan-requests&lt;/span&gt;" style="rounded=1;whiteSpace=wrap;html=1;fillColor=#fff2cc;strokeColor=#d6b656;" vertex="1" parent="1">
          <mxGeometry x="1960" y="600" width="170" height="40" as="geometry" />
        </mxCell>
        <mxCell id="dpicTkMfaYpDJ2BjrbRp-30" value="topic: transactions" style="rounded=1;whiteSpace=wrap;html=1;fillColor=#dae8fc;strokeColor=#6c8ebf;" vertex="1" parent="1">
          <mxGeometry x="630" y="570" width="150" height="40" as="geometry" />
        </mxCell>
        <mxCell id="dpicTkMfaYpDJ2BjrbRp-32" value="Materialize to KTable&lt;div&gt;&lt;br&gt;&lt;/div&gt;&lt;div&gt;left Join&lt;/div&gt;" style="whiteSpace=wrap;html=1;aspect=fixed;" vertex="1" parent="1">
          <mxGeometry x="1960" y="730" width="110" height="110" as="geometry" />
        </mxCell>
        <mxCell id="dpicTkMfaYpDJ2BjrbRp-35" value="&lt;b&gt;TOPOLOGY 1&lt;/b&gt;" style="text;html=1;align=center;verticalAlign=middle;resizable=0;points=[];autosize=1;strokeColor=none;fillColor=none;" vertex="1" parent="1">
          <mxGeometry x="110" y="458" width="100" height="30" as="geometry" />
        </mxCell>
        <mxCell id="dpicTkMfaYpDJ2BjrbRp-37" value="topic:&amp;nbsp;&lt;span style=&quot;color: rgb(6, 125, 23); font-family: &amp;quot;JetBrains Mono&amp;quot;, monospace; font-size: 9.8pt; text-align: left; background-color: initial;&quot;&gt;transfer-transactions&lt;/span&gt;" style="rounded=1;whiteSpace=wrap;html=1;fillColor=#dae8fc;strokeColor=#6c8ebf;" vertex="1" parent="1">
          <mxGeometry x="860" y="418" width="150" height="40" as="geometry" />
        </mxCell>
        <mxCell id="dpicTkMfaYpDJ2BjrbRp-41" value="" style="endArrow=none;dashed=1;html=1;dashPattern=1 3;strokeWidth=2;rounded=0;exitX=0.931;exitY=1.07;exitDx=0;exitDy=0;exitPerimeter=0;entryX=0;entryY=0;entryDx=0;entryDy=0;" edge="1" parent="1" source="cioU7FfHLNsiO_axy74r-2" target="dpicTkMfaYpDJ2BjrbRp-37">
          <mxGeometry width="50" height="50" relative="1" as="geometry">
            <mxPoint x="510" y="370" as="sourcePoint" />
            <mxPoint x="560" y="320" as="targetPoint" />
          </mxGeometry>
        </mxCell>
        <mxCell id="dpicTkMfaYpDJ2BjrbRp-42" value="" style="endArrow=none;dashed=1;html=1;dashPattern=1 3;strokeWidth=2;rounded=0;exitX=1;exitY=0.75;exitDx=0;exitDy=0;entryX=0;entryY=0.25;entryDx=0;entryDy=0;" edge="1" parent="1" source="cioU7FfHLNsiO_axy74r-2" target="dpicTkMfaYpDJ2BjrbRp-3">
          <mxGeometry width="50" height="50" relative="1" as="geometry">
            <mxPoint x="740" y="370" as="sourcePoint" />
            <mxPoint x="790" y="320" as="targetPoint" />
          </mxGeometry>
        </mxCell>
        <mxCell id="dpicTkMfaYpDJ2BjrbRp-44" value="&lt;pre style=&quot;color: rgb(8, 8, 8); font-family: &amp;quot;JetBrains Mono&amp;quot;, monospace; font-size: 9.8pt;&quot;&gt;&lt;span style=&quot;color: rgb(0, 0, 0);&quot;&gt;BalanceCalculationTopology&lt;/span&gt;&lt;/pre&gt;" style="edgeLabel;html=1;align=center;verticalAlign=middle;resizable=0;points=[];" vertex="1" connectable="0" parent="dpicTkMfaYpDJ2BjrbRp-42">
          <mxGeometry x="-0.0348" y="3" relative="1" as="geometry">
            <mxPoint as="offset" />
          </mxGeometry>
        </mxCell>
        <mxCell id="dpicTkMfaYpDJ2BjrbRp-43" value="&lt;span style=&quot;color: rgb(31, 35, 40); font-family: -apple-system, BlinkMacSystemFont, &amp;quot;Segoe UI&amp;quot;, &amp;quot;Noto Sans&amp;quot;, Helvetica, Arial, sans-serif, &amp;quot;Apple Color Emoji&amp;quot;, &amp;quot;Segoe UI Emoji&amp;quot;; font-size: 16px; text-align: left; text-wrap-mode: wrap; background-color: rgb(255, 255, 255);&quot;&gt;transaction-filter-topology&lt;/span&gt;" style="text;html=1;align=center;verticalAlign=middle;resizable=0;points=[];autosize=1;strokeColor=none;fillColor=none;" vertex="1" parent="1">
          <mxGeometry x="495" y="278" width="210" height="30" as="geometry" />
        </mxCell>
        <mxCell id="dpicTkMfaYpDJ2BjrbRp-53" value="" style="edgeStyle=orthogonalEdgeStyle;rounded=0;orthogonalLoop=1;jettySize=auto;html=1;" edge="1" parent="1" source="dpicTkMfaYpDJ2BjrbRp-45" target="dpicTkMfaYpDJ2BjrbRp-26">
          <mxGeometry relative="1" as="geometry" />
        </mxCell>
        <mxCell id="dpicTkMfaYpDJ2BjrbRp-45" value="&lt;div style=&quot;background-color:#ffffff;color:#080808&quot;&gt;&lt;pre style=&quot;font-family:&#39;JetBrains Mono&#39;,monospace;font-size:9.8pt;&quot;&gt;&lt;b&gt;&lt;span style=&quot;color:#000000;&quot;&gt;accountKeySerde&lt;/span&gt;, &lt;span style=&quot;color:#000000;&quot;&gt;loanRequestSerde&lt;/span&gt;&lt;/b&gt;&lt;/pre&gt;&lt;/div&gt;" style="text;html=1;align=center;verticalAlign=middle;whiteSpace=wrap;rounded=0;" vertex="1" parent="1">
          <mxGeometry x="1690" y="635" width="60" height="30" as="geometry" />
        </mxCell>
        <mxCell id="dpicTkMfaYpDJ2BjrbRp-46" value="&lt;b&gt;&lt;font color=&quot;#ff3399&quot;&gt;TOPOLGY :3&lt;/font&gt;&lt;/b&gt;" style="text;html=1;align=center;verticalAlign=middle;whiteSpace=wrap;rounded=0;" vertex="1" parent="1">
          <mxGeometry x="1770" y="490" width="120" height="30" as="geometry" />
        </mxCell>
        <mxCell id="dpicTkMfaYpDJ2BjrbRp-47" value="" style="endArrow=none;dashed=1;html=1;rounded=0;entryX=0.143;entryY=0.071;entryDx=0;entryDy=0;entryPerimeter=0;exitX=1;exitY=0.25;exitDx=0;exitDy=0;" edge="1" parent="1" source="cioU7FfHLNsiO_axy74r-14" target="dpicTkMfaYpDJ2BjrbRp-12">
          <mxGeometry width="50" height="50" relative="1" as="geometry">
            <mxPoint x="950" y="270" as="sourcePoint" />
            <mxPoint x="1000" y="220" as="targetPoint" />
          </mxGeometry>
        </mxCell>
        <mxCell id="dpicTkMfaYpDJ2BjrbRp-48" value="&lt;span style=&quot;font-size: 12px; text-wrap-mode: wrap; background-color: rgb(251, 251, 251);&quot;&gt;Loan Evaluation&amp;nbsp;&lt;/span&gt;&lt;b style=&quot;font-size: 12px; text-wrap-mode: wrap; background-color: rgb(251, 251, 251);&quot;&gt;TOPOLOGY&lt;/b&gt;" style="edgeLabel;html=1;align=center;verticalAlign=middle;resizable=0;points=[];" vertex="1" connectable="0" parent="dpicTkMfaYpDJ2BjrbRp-47">
          <mxGeometry x="-0.0228" y="5" relative="1" as="geometry">
            <mxPoint as="offset" />
          </mxGeometry>
        </mxCell>
        <mxCell id="dpicTkMfaYpDJ2BjrbRp-49" value="&lt;b&gt;Topic Consumer&lt;/b&gt;" style="text;html=1;align=center;verticalAlign=middle;whiteSpace=wrap;rounded=0;" vertex="1" parent="1">
          <mxGeometry x="1390" y="310" width="120" height="30" as="geometry" />
        </mxCell>
        <mxCell id="dpicTkMfaYpDJ2BjrbRp-50" value="Implementation for the topology is Loan Service" style="text;html=1;align=center;verticalAlign=middle;whiteSpace=wrap;rounded=0;" vertex="1" parent="1">
          <mxGeometry x="1460" y="350" width="60" height="30" as="geometry" />
        </mxCell>
        <mxCell id="dpicTkMfaYpDJ2BjrbRp-51" value="topic:&amp;nbsp;&lt;span style=&quot;color: rgb(6, 125, 23); font-family: &amp;quot;JetBrains Mono&amp;quot;, monospace; font-size: 9.8pt; background-color: rgb(255, 255, 255);&quot;&gt;account-balances&lt;/span&gt;" style="rounded=1;whiteSpace=wrap;html=1;fillColor=#fff2cc;strokeColor=#d6b656;" vertex="1" parent="1">
          <mxGeometry x="1610" y="700" width="170" height="40" as="geometry" />
        </mxCell>
        <mxCell id="dpicTkMfaYpDJ2BjrbRp-52" value="&lt;div style=&quot;background-color:#ffffff;color:#080808&quot;&gt;&lt;pre style=&quot;font-family:&#39;JetBrains Mono&#39;,monospace;font-size:9.8pt;&quot;&gt;&lt;b&gt;&lt;span style=&quot;color:#000000;&quot;&gt;accountKeySerde&lt;/span&gt;, &lt;span style=&quot;color:#000000;&quot;&gt;accountBalanceSerde&lt;/span&gt;&lt;/b&gt;&lt;/pre&gt;&lt;/div&gt;" style="text;html=1;align=center;verticalAlign=middle;whiteSpace=wrap;rounded=0;" vertex="1" parent="1">
          <mxGeometry x="1700" y="730" width="60" height="30" as="geometry" />
        </mxCell>
        <mxCell id="dpicTkMfaYpDJ2BjrbRp-54" value="&lt;b&gt;Toplogy says: what to do when a topic gets request from topic and how(which serde type)&lt;/b&gt;&lt;div&gt;&lt;b&gt;Application/ implemanattion write business logic amd configure strems in @config&lt;/b&gt;&lt;/div&gt;" style="text;html=1;align=center;verticalAlign=middle;whiteSpace=wrap;rounded=0;" vertex="1" parent="1">
          <mxGeometry x="1200" y="860" width="500" height="190" as="geometry" />
        </mxCell>
        <mxCell id="dpicTkMfaYpDJ2BjrbRp-55" value="&lt;b style=&quot;forced-color-adjust: none; color: rgb(0, 0, 0); font-family: Helvetica; font-size: 12px; font-style: normal; font-variant-ligatures: normal; font-variant-caps: normal; letter-spacing: normal; orphans: 2; text-align: center; text-indent: 0px; text-transform: none; widows: 2; word-spacing: 0px; -webkit-text-stroke-width: 0px; white-space: normal; background-color: rgb(251, 251, 251); text-decoration-thickness: initial; text-decoration-style: initial; text-decoration-color: initial;&quot;&gt;&lt;font color=&quot;#ff3399&quot; style=&quot;forced-color-adjust: none;&quot;&gt;TOPOLGY :2&lt;/font&gt;&lt;/b&gt;" style="text;whiteSpace=wrap;html=1;" vertex="1" parent="1">
          <mxGeometry x="820" y="470" width="110" height="40" as="geometry" />
        </mxCell>
      </root>
    </mxGraphModel>
  </diagram>
</mxfile>
